<?xml version="1.0" encoding="utf-8" ?>
<svg baseProfile="full" height="1400px" version="1.1" viewBox="0 0 2400 1400" width="2400px" xmlns="http://www.w3.org/2000/svg" xmlns:ev="http://www.w3.org/2001/xml-events" xmlns:xlink="http://www.w3.org/1999/xlink"><defs /><g id="background"><rect fill="#FAFAFA" height="1400" width="2400" x="0" y="0" /></g><g id="title"><text fill="#333333" font-family="Inter, -apple-system, BlinkMacSystemFont, sans-serif" font-size="28px" font-weight="bold" x="80" y="50">Growfolio iOS — Onboarding &amp; Authentication Flow</text></g><g id="screens"><g id="onboarding-1"><rect fill="#FFFFFF" height="390" rx="20" ry="20" stroke="#E0E0E0" stroke-width="2" width="180" x="80" y="140" /><rect fill="#F0F0F0" height="10" rx="5" ry="5" stroke="none" stroke-width="1" width="60" x="140" y="148" /><text fill="#999999" font-family="Inter, -apple-system, BlinkMacSystemFont, sans-serif" font-size="11px" font-weight="normal" x="225" y="170">Skip</text><circle cx="170" cy="240" fill="#F0F0F0" r="25" /><circle cx="170" cy="240" fill="#34C759" opacity="0.3" r="15" /><text fill="#333333" font-family="Inter, -apple-system, BlinkMacSystemFont, sans-serif" font-size="12px" font-weight="bold" x="110" y="295">Welcome to</text><text fill="#333333" font-family="Inter, -apple-system, BlinkMacSystemFont, sans-serif" font-size="12px" font-weight="bold" x="110" y="312">Growfolio</text><text fill="#999999" font-family="Inter, -apple-system, BlinkMacSystemFont, sans-serif" font-size="9px" font-weight="normal" x="100" y="340">Description text here</text><circle cx="146" cy="450" fill="#34C759" r="3" /><circle cx="158" cy="450" fill="#CCCCCC" r="3" /><circle cx="170" cy="450" fill="#CCCCCC" r="3" /><circle cx="182" cy="450" fill="#CCCCCC" r="3" /><circle cx="194" cy="450" fill="#CCCCCC" r="3" /><rect fill="#F0F0F0" height="35" rx="8" ry="8" stroke="none" stroke-width="1" width="140" x="100" y="475" /><text fill="#666666" font-family="Inter, -apple-system, BlinkMacSystemFont, sans-serif" font-size="10px" font-weight="bold" x="135" y="498">Continue</text></g><g id="onboarding-2"><rect fill="#FFFFFF" height="390" rx="20" ry="20" stroke="#E0E0E0" stroke-width="2" width="180" x="320" y="140" /><rect fill="#F0F0F0" height="10" rx="5" ry="5" stroke="none" stroke-width="1" width="60" x="380" y="148" /><text fill="#999999" font-family="Inter, -apple-system, BlinkMacSystemFont, sans-serif" font-size="11px" font-weight="normal" x="465" y="170">Skip</text><circle cx="410" cy="240" fill="#F0F0F0" r="25" /><circle cx="410" cy="240" fill="#34C759" opacity="0.3" r="15" /><text fill="#333333" font-family="Inter, -apple-system, BlinkMacSystemFont, sans-serif" font-size="12px" font-weight="bold" x="350" y="295">Set Investment</text><text fill="#333333" font-family="Inter, -apple-system, BlinkMacSystemFont, sans-serif" font-size="12px" font-weight="bold" x="350" y="312">Goals</text><text fill="#999999" font-family="Inter, -apple-system, BlinkMacSystemFont, sans-serif" font-size="9px" font-weight="normal" x="340" y="340">Description text here</text><circle cx="386" cy="450" fill="#CCCCCC" r="3" /><circle cx="398" cy="450" fill="#34C759" r="3" /><circle cx="410" cy="450" fill="#CCCCCC" r="3" /><circle cx="422" cy="450" fill="#CCCCCC" r="3" /><circle cx="434" cy="450" fill="#CCCCCC" r="3" /><rect fill="#F0F0F0" height="35" rx="8" ry="8" stroke="none" stroke-width="1" width="140" x="340" y="475" /><text fill="#666666" font-family="Inter, -apple-system, BlinkMacSystemFont, sans-serif" font-size="10px" font-weight="bold" x="375" y="498">Continue</text></g><g id="onboarding-3"><rect fill="#FFFFFF" height="390" rx="20" ry="20" stroke="#E0E0E0" stroke-width="2" width="180" x="560" y="140" /><rect fill="#F0F0F0" height="10" rx="5" ry="5" stroke="none" stroke-width="1" width="60" x="620" y="148" /><text fill="#999999" font-family="Inter, -apple-system, BlinkMacSystemFont, sans-serif" font-size="11px" font-weight="normal" x="705" y="170">Skip</text><circle cx="650" cy="240" fill="#F0F0F0" r="25" /><circle cx="650" cy="240" fill="#34C759" opacity="0.3" r="15" /><text fill="#333333" font-family="Inter, -apple-system, BlinkMacSystemFont, sans-serif" font-size="12px" font-weight="bold" x="590" y="295">Automate Your</text><text fill="#333333" font-family="Inter, -apple-system, BlinkMacSystemFont, sans-serif" font-size="12px" font-weight="bold" x="590" y="312">Investments</text><text fill="#999999" font-family="Inter, -apple-system, BlinkMacSystemFont, sans-serif" font-size="9px" font-weight="normal" x="580" y="340">Description text here</text><circle cx="626" cy="450" fill="#CCCCCC" r="3" /><circle cx="638" cy="450" fill="#CCCCCC" r="3" /><circle cx="650" cy="450" fill="#34C759" r="3" /><circle cx="662" cy="450" fill="#CCCCCC" r="3" /><circle cx="674" cy="450" fill="#CCCCCC" r="3" /><rect fill="#F0F0F0" height="35" rx="8" ry="8" stroke="none" stroke-width="1" width="140" x="580" y="475" /><text fill="#666666" font-family="Inter, -apple-system, BlinkMacSystemFont, sans-serif" font-size="10px" font-weight="bold" x="615" y="498">Continue</text></g><g id="onboarding-4"><rect fill="#FFFFFF" height="390" rx="20" ry="20" stroke="#E0E0E0" stroke-width="2" width="180" x="800" y="140" /><rect fill="#F0F0F0" height="10" rx="5" ry="5" stroke="none" stroke-width="1" width="60" x="860" y="148" /><text fill="#999999" font-family="Inter, -apple-system, BlinkMacSystemFont, sans-serif" font-size="11px" font-weight="normal" x="945" y="170">Skip</text><circle cx="890" cy="240" fill="#F0F0F0" r="25" /><circle cx="890" cy="240" fill="#34C759" opacity="0.3" r="15" /><text fill="#333333" font-family="Inter, -apple-system, BlinkMacSystemFont, sans-serif" font-size="12px" font-weight="bold" x="830" y="295">Track Your</text><text fill="#333333" font-family="Inter, -apple-system, BlinkMacSystemFont, sans-serif" font-size="12px" font-weight="bold" x="830" y="312">Portfolio</text><text fill="#999999" font-family="Inter, -apple-system, BlinkMacSystemFont, sans-serif" font-size="9px" font-weight="normal" x="820" y="340">Description text here</text><circle cx="866" cy="450" fill="#CCCCCC" r="3" /><circle cx="878" cy="450" fill="#CCCCCC" r="3" /><circle cx="890" cy="450" fill="#CCCCCC" r="3" /><circle cx="902" cy="450" fill="#34C759" r="3" /><circle cx="914" cy="450" fill="#CCCCCC" r="3" /><rect fill="#F0F0F0" height="35" rx="8" ry="8" stroke="none" stroke-width="1" width="140" x="820" y="475" /><text fill="#666666" font-family="Inter, -apple-system, BlinkMacSystemFont, sans-serif" font-size="10px" font-weight="bold" x="855" y="498">Continue</text></g><g id="onboarding-5"><rect fill="#FFFFFF" height="390" rx="20" ry="20" stroke="#E0E0E0" stroke-width="2" width="180" x="1040" y="140" /><rect fill="#F0F0F0" height="10" rx="5" ry="5" stroke="none" stroke-width="1" width="60" x="1100" y="148" /><circle cx="1130" cy="240" fill="#F0F0F0" r="25" /><circle cx="1130" cy="240" fill="#34C759" opacity="0.3" r="15" /><text fill="#333333" font-family="Inter, -apple-system, BlinkMacSystemFont, sans-serif" font-size="12px" font-weight="bold" x="1070" y="295">Invest as</text><text fill="#333333" font-family="Inter, -apple-system, BlinkMacSystemFont, sans-serif" font-size="12px" font-weight="bold" x="1070" y="312">a Family</text><text fill="#999999" font-family="Inter, -apple-system, BlinkMacSystemFont, sans-serif" font-size="9px" font-weight="normal" x="1060" y="340">Description text here</text><circle cx="1106" cy="450" fill="#CCCCCC" r="3" /><circle cx="1118" cy="450" fill="#CCCCCC" r="3" /><circle cx="1130" cy="450" fill="#CCCCCC" r="3" /><circle cx="1142" cy="450" fill="#CCCCCC" r="3" /><circle cx="1154" cy="450" fill="#34C759" r="3" /><rect fill="#34C759" height="35" rx="8" ry="8" stroke="none" stroke-width="1" width="140" x="1060" y="475" /><text fill="white" font-family="Inter, -apple-system, BlinkMacSystemFont, sans-serif" font-size="10px" font-weight="bold" x="1095" y="498">Get Started</text></g><g id="auth-screen"><rect fill="#FFFFFF" height="390" rx="20" ry="20" stroke="#E0E0E0" stroke-width="2" width="180" x="1320" y="140" /><rect fill="#F0F0F0" height="10" rx="5" ry="5" stroke="none" stroke-width="1" width="60" x="1380" y="148" /><circle cx="1410" cy="270" fill="#34C759" r="35" /><text fill="white" font-family="Inter, -apple-system, BlinkMacSystemFont, sans-serif" font-size="28px" font-weight="bold" x="1398" y="285">G</text><text fill="#333333" font-family="Inter, -apple-system, BlinkMacSystemFont, sans-serif" font-size="14px" font-weight="bold" x="1370" y="335">Growfolio</text><text fill="#999999" font-family="Inter, -apple-system, BlinkMacSystemFont, sans-serif" font-size="10px" font-weight="normal" x="1355" y="360">Sign in to access</text><text fill="#999999" font-family="Inter, -apple-system, BlinkMacSystemFont, sans-serif" font-size="10px" font-weight="normal" x="1370" y="375">your portfolio</text><rect fill="#000000" height="45" rx="8" ry="8" stroke="none" stroke-width="1" width="140" x="1340" y="420" /><text fill="white" font-family="Inter, -apple-system, BlinkMacSystemFont, sans-serif" font-size="10px" font-weight="bold" x="1355" y="448">Sign in with Apple</text></g></g><g id="arrows"><g id="arrow-0-1"><line stroke="#666666" stroke-width="2" x1="265" x2="315" y1="335" y2="335" /><polygon fill="#666666" points="315,335 306.33974596215563,340.0 306.33974596215563,330.0" /></g><g id="arrow-1-2"><line stroke="#666666" stroke-width="2" x1="505" x2="555" y1="335" y2="335" /><polygon fill="#666666" points="555,335 546.3397459621556,340.0 546.3397459621556,330.0" /></g><g id="arrow-2-3"><line stroke="#666666" stroke-width="2" x1="745" x2="795" y1="335" y2="335" /><polygon fill="#666666" points="795,335 786.3397459621556,340.0 786.3397459621556,330.0" /></g><g id="arrow-3-4"><line stroke="#666666" stroke-width="2" x1="985" x2="1035" y1="335" y2="335" /><polygon fill="#666666" points="1035,335 1026.3397459621556,340.0 1026.3397459621556,330.0" /></g><g id="arrow-onboarding-auth"><line stroke="#666666" stroke-width="2" x1="1225" x2="1315" y1="335" y2="335" /><polygon fill="#666666" points="1315,335 1306.3397459621556,340.0 1306.3397459621556,330.0" /></g><g id="legend-arrow"><line stroke="#666666" stroke-width="2" x1="80" x2="120" y1="1345" y2="1345" /><polygon fill="#666666" points="120,1345 111.33974596215562,1350.0 111.33974596215562,1340.0" /></g></g><g id="labels"><text fill="#999999" font-family="Inter, -apple-system, BlinkMacSystemFont, sans-serif" font-size="10px" font-weight="normal" x="80" y="100">TabView (Page Style)</text><text fill="#999999" font-family="Inter, -apple-system, BlinkMacSystemFont, sans-serif" font-size="9px" font-weight="normal" x="152" y="545">Page 1</text><text fill="#999999" font-family="Inter, -apple-system, BlinkMacSystemFont, sans-serif" font-size="9px" font-weight="normal" x="392" y="545">Page 2</text><text fill="#999999" font-family="Inter, -apple-system, BlinkMacSystemFont, sans-serif" font-size="9px" font-weight="normal" x="632" y="545">Page 3</text><text fill="#999999" font-family="Inter, -apple-system, BlinkMacSystemFont, sans-serif" font-size="9px" font-weight="normal" x="872" y="545">Page 4</text><text fill="#999999" font-family="Inter, -apple-system, BlinkMacSystemFont, sans-serif" font-size="9px" font-weight="normal" x="1112" y="545">Page 5</text><text fill="#999999" font-family="Inter, -apple-system, BlinkMacSystemFont, sans-serif" font-size="9px" font-weight="normal" x="1398" y="545">Auth</text><text fill="#999999" font-family="Inter, -apple-system, BlinkMacSystemFont, sans-serif" font-size="10px" font-weight="normal" x="290" y="120">Skip (available on all pages)</text><text fill="#34C759" font-family="Inter, -apple-system, BlinkMacSystemFont, sans-serif" font-size="10px" font-weight="normal" x="1520" y="320">Success →</text><text fill="#999999" font-family="Inter, -apple-system, BlinkMacSystemFont, sans-serif" font-size="9px" font-weight="normal" x="1520" y="340">KYC Flow (new user)</text><text fill="#999999" font-family="Inter, -apple-system, BlinkMacSystemFont, sans-serif" font-size="9px" font-weight="normal" x="1520" y="355">Main App (returning)</text><text fill="#666666" font-family="Inter, -apple-system, BlinkMacSystemFont, sans-serif" font-size="14px" font-weight="normal" x="80" y="1320">Navigation Legend:</text><text fill="#999999" font-family="Inter, -apple-system, BlinkMacSystemFont, sans-serif" font-size="9px" font-weight="normal" x="130" y="1350">Primary flow (swipe/tap)</text><text fill="#999999" font-family="Inter, -apple-system, BlinkMacSystemFont, sans-serif" font-size="9px" font-weight="normal" x="80" y="1365">Source: OnboardingView.swift, GrowfolioApp.swift</text></g></svg>