<?xml version="1.0" encoding="utf-8" ?>
<svg baseProfile="full" height="1400px" version="1.1" viewBox="0 0 2400 1400" width="2400px" xmlns="http://www.w3.org/2000/svg" xmlns:ev="http://www.w3.org/2001/xml-events" xmlns:xlink="http://www.w3.org/1999/xlink"><defs /><g id="background"><rect fill="#FAFAFA" height="1400" width="2400" x="0" y="0" /></g><g id="title"><text fill="#333333" font-family="Inter, -apple-system, BlinkMacSystemFont, sans-serif" font-size="28px" font-weight="bold" x="80" y="50">Growfolio iOS — KYC Verification Flow</text></g><g id="screens"><g id="kyc-1"><rect fill="#FFFFFF" height="390" rx="20" ry="20" stroke="#E0E0E0" stroke-width="2" width="180" x="80" y="130" /><rect fill="#F0F0F0" height="10" rx="5" ry="5" stroke="none" stroke-width="1" width="60" x="140" y="138" /><rect fill="#E0E0E0" height="6" rx="3" ry="3" stroke="none" stroke-width="1" width="140" x="100" y="175" /><rect fill="#34C759" height="6" rx="3" ry="3" stroke="none" stroke-width="1" width="23" x="100" y="175" /><text fill="#999999" font-family="Inter, -apple-system, BlinkMacSystemFont, sans-serif" font-size="9px" font-weight="normal" x="100" y="198">Step 1 of 6</text><text fill="#333333" font-family="Inter, -apple-system, BlinkMacSystemFont, sans-serif" font-size="12px" font-weight="bold" x="100" y="225">Personal Info</text><text fill="#666666" font-family="Inter, -apple-system, BlinkMacSystemFont, sans-serif" font-size="9px" font-weight="normal" x="100" y="245">Full Name</text><rect fill="#F8F8F8" height="24" rx="4" ry="4" stroke="#E0E0E0" stroke-width="1" width="140" x="100" y="250" /><text fill="#666666" font-family="Inter, -apple-system, BlinkMacSystemFont, sans-serif" font-size="9px" font-weight="normal" x="100" y="287">Date of Birth</text><rect fill="#F8F8F8" height="24" rx="4" ry="4" stroke="#E0E0E0" stroke-width="1" width="140" x="100" y="292" /><text fill="#666666" font-family="Inter, -apple-system, BlinkMacSystemFont, sans-serif" font-size="9px" font-weight="normal" x="100" y="329">Email</text><rect fill="#F8F8F8" height="24" rx="4" ry="4" stroke="#E0E0E0" stroke-width="1" width="140" x="100" y="334" /><text fill="#666666" font-family="Inter, -apple-system, BlinkMacSystemFont, sans-serif" font-size="9px" font-weight="normal" x="100" y="371">Phone</text><rect fill="#F8F8F8" height="24" rx="4" ry="4" stroke="#E0E0E0" stroke-width="1" width="140" x="100" y="376" /><circle cx="125" cy="445" fill="#34C759" r="4" /><circle cx="143" cy="445" fill="#CCCCCC" r="4" /><circle cx="161" cy="445" fill="#CCCCCC" r="4" /><circle cx="179" cy="445" fill="#CCCCCC" r="4" /><circle cx="197" cy="445" fill="#CCCCCC" r="4" /><circle cx="215" cy="445" fill="#CCCCCC" r="4" /><rect fill="#34C759" height="35" rx="8" ry="8" stroke="none" stroke-width="1" width="140" x="100" y="465" /><text fill="white" font-family="Inter, -apple-system, BlinkMacSystemFont, sans-serif" font-size="10px" font-weight="bold" x="125" y="488">Continue</text></g><g id="kyc-2"><rect fill="#FFFFFF" height="390" rx="20" ry="20" stroke="#E0E0E0" stroke-width="2" width="180" x="310" y="130" /><rect fill="#F0F0F0" height="10" rx="5" ry="5" stroke="none" stroke-width="1" width="60" x="370" y="138" /><text fill="#999999" font-family="Inter, -apple-system, BlinkMacSystemFont, sans-serif" font-size="9px" font-weight="normal" x="322" y="160">&lt; Back</text><rect fill="#E0E0E0" height="6" rx="3" ry="3" stroke="none" stroke-width="1" width="140" x="330" y="175" /><rect fill="#34C759" height="6" rx="3" ry="3" stroke="none" stroke-width="1" width="46" x="330" y="175" /><text fill="#999999" font-family="Inter, -apple-system, BlinkMacSystemFont, sans-serif" font-size="9px" font-weight="normal" x="330" y="198">Step 2 of 6</text><text fill="#333333" font-family="Inter, -apple-system, BlinkMacSystemFont, sans-serif" font-size="12px" font-weight="bold" x="330" y="225">Address</text><text fill="#666666" font-family="Inter, -apple-system, BlinkMacSystemFont, sans-serif" font-size="9px" font-weight="normal" x="330" y="245">Street</text><rect fill="#F8F8F8" height="24" rx="4" ry="4" stroke="#E0E0E0" stroke-width="1" width="140" x="330" y="250" /><text fill="#666666" font-family="Inter, -apple-system, BlinkMacSystemFont, sans-serif" font-size="9px" font-weight="normal" x="330" y="287">City</text><rect fill="#F8F8F8" height="24" rx="4" ry="4" stroke="#E0E0E0" stroke-width="1" width="140" x="330" y="292" /><text fill="#666666" font-family="Inter, -apple-system, BlinkMacSystemFont, sans-serif" font-size="9px" font-weight="normal" x="330" y="329">State</text><rect fill="#F8F8F8" height="24" rx="4" ry="4" stroke="#E0E0E0" stroke-width="1" width="140" x="330" y="334" /><text fill="#666666" font-family="Inter, -apple-system, BlinkMacSystemFont, sans-serif" font-size="9px" font-weight="normal" x="330" y="371">Postal Code</text><rect fill="#F8F8F8" height="24" rx="4" ry="4" stroke="#E0E0E0" stroke-width="1" width="140" x="330" y="376" /><circle cx="355" cy="445" fill="#34C759" r="4" /><circle cx="373" cy="445" fill="#34C759" r="4" /><circle cx="391" cy="445" fill="#CCCCCC" r="4" /><circle cx="409" cy="445" fill="#CCCCCC" r="4" /><circle cx="427" cy="445" fill="#CCCCCC" r="4" /><circle cx="445" cy="445" fill="#CCCCCC" r="4" /><rect fill="#34C759" height="35" rx="8" ry="8" stroke="none" stroke-width="1" width="140" x="330" y="465" /><text fill="white" font-family="Inter, -apple-system, BlinkMacSystemFont, sans-serif" font-size="10px" font-weight="bold" x="355" y="488">Continue</text></g><g id="kyc-3"><rect fill="#FFFFFF" height="390" rx="20" ry="20" stroke="#E0E0E0" stroke-width="2" width="180" x="540" y="130" /><rect fill="#F0F0F0" height="10" rx="5" ry="5" stroke="none" stroke-width="1" width="60" x="600" y="138" /><text fill="#999999" font-family="Inter, -apple-system, BlinkMacSystemFont, sans-serif" font-size="9px" font-weight="normal" x="552" y="160">&lt; Back</text><rect fill="#E0E0E0" height="6" rx="3" ry="3" stroke="none" stroke-width="1" width="140" x="560" y="175" /><rect fill="#34C759" height="6" rx="3" ry="3" stroke="none" stroke-width="1" width="70" x="560" y="175" /><text fill="#999999" font-family="Inter, -apple-system, BlinkMacSystemFont, sans-serif" font-size="9px" font-weight="normal" x="560" y="198">Step 3 of 6</text><text fill="#333333" font-family="Inter, -apple-system, BlinkMacSystemFont, sans-serif" font-size="12px" font-weight="bold" x="560" y="225">Tax Info</text><text fill="#666666" font-family="Inter, -apple-system, BlinkMacSystemFont, sans-serif" font-size="9px" font-weight="normal" x="560" y="245">Tax ID</text><rect fill="#F8F8F8" height="24" rx="4" ry="4" stroke="#E0E0E0" stroke-width="1" width="140" x="560" y="250" /><text fill="#666666" font-family="Inter, -apple-system, BlinkMacSystemFont, sans-serif" font-size="9px" font-weight="normal" x="560" y="287">Residency</text><rect fill="#F8F8F8" height="24" rx="4" ry="4" stroke="#E0E0E0" stroke-width="1" width="140" x="560" y="292" /><text fill="#666666" font-family="Inter, -apple-system, BlinkMacSystemFont, sans-serif" font-size="9px" font-weight="normal" x="560" y="329">Status</text><rect fill="#F8F8F8" height="24" rx="4" ry="4" stroke="#E0E0E0" stroke-width="1" width="140" x="560" y="334" /><circle cx="585" cy="445" fill="#34C759" r="4" /><circle cx="603" cy="445" fill="#34C759" r="4" /><circle cx="621" cy="445" fill="#34C759" r="4" /><circle cx="639" cy="445" fill="#CCCCCC" r="4" /><circle cx="657" cy="445" fill="#CCCCCC" r="4" /><circle cx="675" cy="445" fill="#CCCCCC" r="4" /><rect fill="#34C759" height="35" rx="8" ry="8" stroke="none" stroke-width="1" width="140" x="560" y="465" /><text fill="white" font-family="Inter, -apple-system, BlinkMacSystemFont, sans-serif" font-size="10px" font-weight="bold" x="585" y="488">Continue</text></g><g id="kyc-4"><rect fill="#FFFFFF" height="390" rx="20" ry="20" stroke="#E0E0E0" stroke-width="2" width="180" x="770" y="130" /><rect fill="#F0F0F0" height="10" rx="5" ry="5" stroke="none" stroke-width="1" width="60" x="830" y="138" /><text fill="#999999" font-family="Inter, -apple-system, BlinkMacSystemFont, sans-serif" font-size="9px" font-weight="normal" x="782" y="160">&lt; Back</text><rect fill="#E0E0E0" height="6" rx="3" ry="3" stroke="none" stroke-width="1" width="140" x="790" y="175" /><rect fill="#34C759" height="6" rx="3" ry="3" stroke="none" stroke-width="1" width="93" x="790" y="175" /><text fill="#999999" font-family="Inter, -apple-system, BlinkMacSystemFont, sans-serif" font-size="9px" font-weight="normal" x="790" y="198">Step 4 of 6</text><text fill="#333333" font-family="Inter, -apple-system, BlinkMacSystemFont, sans-serif" font-size="12px" font-weight="bold" x="790" y="225">Employment</text><text fill="#666666" font-family="Inter, -apple-system, BlinkMacSystemFont, sans-serif" font-size="9px" font-weight="normal" x="790" y="245">Status</text><rect fill="#F8F8F8" height="24" rx="4" ry="4" stroke="#E0E0E0" stroke-width="1" width="140" x="790" y="250" /><text fill="#666666" font-family="Inter, -apple-system, BlinkMacSystemFont, sans-serif" font-size="9px" font-weight="normal" x="790" y="287">Employer</text><rect fill="#F8F8F8" height="24" rx="4" ry="4" stroke="#E0E0E0" stroke-width="1" width="140" x="790" y="292" /><text fill="#666666" font-family="Inter, -apple-system, BlinkMacSystemFont, sans-serif" font-size="9px" font-weight="normal" x="790" y="329">Title</text><rect fill="#F8F8F8" height="24" rx="4" ry="4" stroke="#E0E0E0" stroke-width="1" width="140" x="790" y="334" /><circle cx="815" cy="445" fill="#34C759" r="4" /><circle cx="833" cy="445" fill="#34C759" r="4" /><circle cx="851" cy="445" fill="#34C759" r="4" /><circle cx="869" cy="445" fill="#34C759" r="4" /><circle cx="887" cy="445" fill="#CCCCCC" r="4" /><circle cx="905" cy="445" fill="#CCCCCC" r="4" /><rect fill="#34C759" height="35" rx="8" ry="8" stroke="none" stroke-width="1" width="140" x="790" y="465" /><text fill="white" font-family="Inter, -apple-system, BlinkMacSystemFont, sans-serif" font-size="10px" font-weight="bold" x="815" y="488">Continue</text></g><g id="kyc-5"><rect fill="#FFFFFF" height="390" rx="20" ry="20" stroke="#E0E0E0" stroke-width="2" width="180" x="1000" y="130" /><rect fill="#F0F0F0" height="10" rx="5" ry="5" stroke="none" stroke-width="1" width="60" x="1060" y="138" /><text fill="#999999" font-family="Inter, -apple-system, BlinkMacSystemFont, sans-serif" font-size="9px" font-weight="normal" x="1012" y="160">&lt; Back</text><rect fill="#E0E0E0" height="6" rx="3" ry="3" stroke="none" stroke-width="1" width="140" x="1020" y="175" /><rect fill="#34C759" height="6" rx="3" ry="3" stroke="none" stroke-width="1" width="116" x="1020" y="175" /><text fill="#999999" font-family="Inter, -apple-system, BlinkMacSystemFont, sans-serif" font-size="9px" font-weight="normal" x="1020" y="198">Step 5 of 6</text><text fill="#333333" font-family="Inter, -apple-system, BlinkMacSystemFont, sans-serif" font-size="12px" font-weight="bold" x="1020" y="225">Disclosures</text><text fill="#666666" font-family="Inter, -apple-system, BlinkMacSystemFont, sans-serif" font-size="9px" font-weight="normal" x="1020" y="245">Terms</text><rect fill="#F8F8F8" height="24" rx="4" ry="4" stroke="#E0E0E0" stroke-width="1" width="140" x="1020" y="250" /><text fill="#666666" font-family="Inter, -apple-system, BlinkMacSystemFont, sans-serif" font-size="9px" font-weight="normal" x="1020" y="287">Privacy</text><rect fill="#F8F8F8" height="24" rx="4" ry="4" stroke="#E0E0E0" stroke-width="1" width="140" x="1020" y="292" /><text fill="#666666" font-family="Inter, -apple-system, BlinkMacSystemFont, sans-serif" font-size="9px" font-weight="normal" x="1020" y="329">Risks</text><rect fill="#F8F8F8" height="24" rx="4" ry="4" stroke="#E0E0E0" stroke-width="1" width="140" x="1020" y="334" /><circle cx="1045" cy="445" fill="#34C759" r="4" /><circle cx="1063" cy="445" fill="#34C759" r="4" /><circle cx="1081" cy="445" fill="#34C759" r="4" /><circle cx="1099" cy="445" fill="#34C759" r="4" /><circle cx="1117" cy="445" fill="#34C759" r="4" /><circle cx="1135" cy="445" fill="#CCCCCC" r="4" /><rect fill="#34C759" height="35" rx="8" ry="8" stroke="none" stroke-width="1" width="140" x="1020" y="465" /><text fill="white" font-family="Inter, -apple-system, BlinkMacSystemFont, sans-serif" font-size="10px" font-weight="bold" x="1045" y="488">Continue</text></g><g id="kyc-6"><rect fill="#FFFFFF" height="390" rx="20" ry="20" stroke="#E0E0E0" stroke-width="2" width="180" x="1230" y="130" /><rect fill="#F0F0F0" height="10" rx="5" ry="5" stroke="none" stroke-width="1" width="60" x="1290" y="138" /><text fill="#999999" font-family="Inter, -apple-system, BlinkMacSystemFont, sans-serif" font-size="9px" font-weight="normal" x="1242" y="160">&lt; Back</text><rect fill="#E0E0E0" height="6" rx="3" ry="3" stroke="none" stroke-width="1" width="140" x="1250" y="175" /><rect fill="#34C759" height="6" rx="3" ry="3" stroke="none" stroke-width="1" width="140" x="1250" y="175" /><text fill="#999999" font-family="Inter, -apple-system, BlinkMacSystemFont, sans-serif" font-size="9px" font-weight="normal" x="1250" y="198">Step 6 of 6</text><text fill="#333333" font-family="Inter, -apple-system, BlinkMacSystemFont, sans-serif" font-size="12px" font-weight="bold" x="1250" y="225">Review</text><rect fill="#F8F8F8" height="32" rx="6" ry="6" stroke="none" stroke-width="1" width="150" x="1245" y="245" /><text fill="#666666" font-family="Inter, -apple-system, BlinkMacSystemFont, sans-serif" font-size="9px" font-weight="normal" x="1252" y="259">Personal</text><text fill="#34C759" font-family="Inter, -apple-system, BlinkMacSystemFont, sans-serif" font-size="9px" font-weight="normal" x="1375" y="259">✓</text><text fill="#007AFF" font-family="Inter, -apple-system, BlinkMacSystemFont, sans-serif" font-size="8px" font-weight="normal" x="1355" y="267">Edit</text><rect fill="#F8F8F8" height="32" rx="6" ry="6" stroke="none" stroke-width="1" width="150" x="1245" y="283" /><text fill="#666666" font-family="Inter, -apple-system, BlinkMacSystemFont, sans-serif" font-size="9px" font-weight="normal" x="1252" y="297">Address</text><text fill="#34C759" font-family="Inter, -apple-system, BlinkMacSystemFont, sans-serif" font-size="9px" font-weight="normal" x="1375" y="297">✓</text><text fill="#007AFF" font-family="Inter, -apple-system, BlinkMacSystemFont, sans-serif" font-size="8px" font-weight="normal" x="1355" y="305">Edit</text><rect fill="#F8F8F8" height="32" rx="6" ry="6" stroke="none" stroke-width="1" width="150" x="1245" y="321" /><text fill="#666666" font-family="Inter, -apple-system, BlinkMacSystemFont, sans-serif" font-size="9px" font-weight="normal" x="1252" y="335">Tax</text><text fill="#34C759" font-family="Inter, -apple-system, BlinkMacSystemFont, sans-serif" font-size="9px" font-weight="normal" x="1375" y="335">✓</text><text fill="#007AFF" font-family="Inter, -apple-system, BlinkMacSystemFont, sans-serif" font-size="8px" font-weight="normal" x="1355" y="343">Edit</text><rect fill="#F8F8F8" height="32" rx="6" ry="6" stroke="none" stroke-width="1" width="150" x="1245" y="359" /><text fill="#666666" font-family="Inter, -apple-system, BlinkMacSystemFont, sans-serif" font-size="9px" font-weight="normal" x="1252" y="373">Employment</text><text fill="#34C759" font-family="Inter, -apple-system, BlinkMacSystemFont, sans-serif" font-size="9px" font-weight="normal" x="1375" y="373">✓</text><text fill="#007AFF" font-family="Inter, -apple-system, BlinkMacSystemFont, sans-serif" font-size="8px" font-weight="normal" x="1355" y="381">Edit</text><rect fill="#F8F8F8" height="32" rx="6" ry="6" stroke="none" stroke-width="1" width="150" x="1245" y="397" /><text fill="#666666" font-family="Inter, -apple-system, BlinkMacSystemFont, sans-serif" font-size="9px" font-weight="normal" x="1252" y="411">Disclosures</text><text fill="#34C759" font-family="Inter, -apple-system, BlinkMacSystemFont, sans-serif" font-size="9px" font-weight="normal" x="1375" y="411">✓</text><text fill="#007AFF" font-family="Inter, -apple-system, BlinkMacSystemFont, sans-serif" font-size="8px" font-weight="normal" x="1355" y="419">Edit</text><circle cx="1275" cy="445" fill="#34C759" r="4" /><circle cx="1293" cy="445" fill="#34C759" r="4" /><circle cx="1311" cy="445" fill="#34C759" r="4" /><circle cx="1329" cy="445" fill="#34C759" r="4" /><circle cx="1347" cy="445" fill="#34C759" r="4" /><circle cx="1365" cy="445" fill="#34C759" r="4" /><rect fill="#34C759" height="35" rx="8" ry="8" stroke="none" stroke-width="1" width="140" x="1250" y="465" /><text fill="white" font-family="Inter, -apple-system, BlinkMacSystemFont, sans-serif" font-size="10px" font-weight="bold" x="1265" y="488">Submit Application</text></g></g><g id="arrows"><g id="arrow-kyc-0-1"><line stroke="#666666" stroke-width="2" x1="265" x2="305" y1="325" y2="325" /><polygon fill="#666666" points="305,325 296.33974596215563,330.0 296.33974596215563,320.0" /></g><g id="arrow-kyc-1-2"><line stroke="#666666" stroke-width="2" x1="495" x2="535" y1="325" y2="325" /><polygon fill="#666666" points="535,325 526.3397459621556,330.0 526.3397459621556,320.0" /></g><g id="arrow-kyc-2-3"><line stroke="#666666" stroke-width="2" x1="725" x2="765" y1="325" y2="325" /><polygon fill="#666666" points="765,325 756.3397459621556,330.0 756.3397459621556,320.0" /></g><g id="arrow-kyc-3-4"><line stroke="#666666" stroke-width="2" x1="955" x2="995" y1="325" y2="325" /><polygon fill="#666666" points="995,325 986.3397459621556,330.0 986.3397459621556,320.0" /></g><g id="arrow-kyc-4-5"><line stroke="#666666" stroke-width="2" x1="1185" x2="1225" y1="325" y2="325" /><polygon fill="#666666" points="1225,325 1216.3397459621556,330.0 1216.3397459621556,320.0" /></g></g><g id="labels"><text fill="#999999" font-family="Inter, -apple-system, BlinkMacSystemFont, sans-serif" font-size="10px" font-weight="normal" x="80" y="85">6-step compliance verification with progress tracking</text><text fill="#999999" font-family="Inter, -apple-system, BlinkMacSystemFont, sans-serif" font-size="9px" font-weight="normal" x="152" y="535">Step 1</text><text fill="#999999" font-family="Inter, -apple-system, BlinkMacSystemFont, sans-serif" font-size="9px" font-weight="normal" x="382" y="535">Step 2</text><text fill="#999999" font-family="Inter, -apple-system, BlinkMacSystemFont, sans-serif" font-size="9px" font-weight="normal" x="612" y="535">Step 3</text><text fill="#999999" font-family="Inter, -apple-system, BlinkMacSystemFont, sans-serif" font-size="9px" font-weight="normal" x="842" y="535">Step 4</text><text fill="#999999" font-family="Inter, -apple-system, BlinkMacSystemFont, sans-serif" font-size="9px" font-weight="normal" x="1072" y="535">Step 5</text><text fill="#999999" font-family="Inter, -apple-system, BlinkMacSystemFont, sans-serif" font-size="9px" font-weight="normal" x="1302" y="535">Step 6</text><text fill="#34C759" font-family="Inter, -apple-system, BlinkMacSystemFont, sans-serif" font-size="10px" font-weight="normal" x="1430" y="315">Submit Success →</text><text fill="#999999" font-family="Inter, -apple-system, BlinkMacSystemFont, sans-serif" font-size="9px" font-weight="normal" x="1430" y="335">Main App TabView</text><text fill="#999999" font-family="Inter, -apple-system, BlinkMacSystemFont, sans-serif" font-size="10px" font-weight="normal" x="270" y="555">&lt; Back navigation available on all steps</text><text fill="#999999" font-family="Inter, -apple-system, BlinkMacSystemFont, sans-serif" font-size="9px" font-weight="normal" x="80" y="1365">Source: KYCFlowView.swift, PersonalInfoView.swift, AddressView.swift, TaxInfoView.swift, EmploymentInfoView.swift, DisclosuresView.swift, KYCReviewView.swift</text></g></svg>