<?xml version="1.0" encoding="utf-8" ?>
<svg baseProfile="full" height="1400px" version="1.1" viewBox="0 0 2400 1400" width="2400px" xmlns="http://www.w3.org/2000/svg" xmlns:ev="http://www.w3.org/2001/xml-events" xmlns:xlink="http://www.w3.org/1999/xlink"><defs /><g id="background"><rect fill="#FAFAFA" height="1400" width="2400" x="0" y="0" /></g><g id="title"><text fill="#333333" font-family="Inter, -apple-system, BlinkMacSystemFont, sans-serif" font-size="28px" font-weight="bold" x="80" y="50">Growfolio iOS — Main App Navigation</text></g><g id="screens"><g id="tab-0"><rect fill="#FFFFFF" height="390" rx="20" ry="20" stroke="#E0E0E0" stroke-width="2" width="180" x="100" y="140" /><rect fill="#F0F0F0" height="10" rx="5" ry="5" stroke="none" stroke-width="1" width="60" x="160" y="148" /><line stroke="#E0E0E0" stroke-width="1" x1="100" x2="280" y1="480" y2="480" /><circle cx="118" cy="498" fill="#34C759" r="4" /><text fill="#34C759" font-family="Inter, -apple-system, BlinkMacSystemFont, sans-serif" font-size="8px" x="106" y="518">Home</text><circle cx="154" cy="498" fill="#999999" r="4" /><text fill="#999999" font-family="Inter, -apple-system, BlinkMacSystemFont, sans-serif" font-size="8px" x="142" y="518">Watch</text><circle cx="190" cy="498" fill="#999999" r="4" /><text fill="#999999" font-family="Inter, -apple-system, BlinkMacSystemFont, sans-serif" font-size="8px" x="178" y="518">DCA</text><circle cx="226" cy="498" fill="#999999" r="4" /><text fill="#999999" font-family="Inter, -apple-system, BlinkMacSystemFont, sans-serif" font-size="8px" x="214" y="518">Port</text><circle cx="262" cy="498" fill="#999999" r="4" /><text fill="#999999" font-family="Inter, -apple-system, BlinkMacSystemFont, sans-serif" font-size="8px" x="250" y="518">Set</text><text fill="#333333" font-family="Inter, -apple-system, BlinkMacSystemFont, sans-serif" font-size="12px" font-weight="bold" x="115" y="180">Dashboard</text><rect fill="#F5F5F5" height="220" rx="8" ry="8" stroke="none" stroke-width="1" width="150" x="115" y="195" /><text fill="#999999" font-family="Inter, -apple-system, BlinkMacSystemFont, sans-serif" font-size="11px" font-weight="normal" x="155" y="300">Content Area</text></g><g id="tab-1"><rect fill="#FFFFFF" height="390" rx="20" ry="20" stroke="#E0E0E0" stroke-width="2" width="180" x="360" y="140" /><rect fill="#F0F0F0" height="10" rx="5" ry="5" stroke="none" stroke-width="1" width="60" x="420" y="148" /><line stroke="#E0E0E0" stroke-width="1" x1="360" x2="540" y1="480" y2="480" /><circle cx="378" cy="498" fill="#999999" r="4" /><text fill="#999999" font-family="Inter, -apple-system, BlinkMacSystemFont, sans-serif" font-size="8px" x="366" y="518">Home</text><circle cx="414" cy="498" fill="#34C759" r="4" /><text fill="#34C759" font-family="Inter, -apple-system, BlinkMacSystemFont, sans-serif" font-size="8px" x="402" y="518">Watch</text><circle cx="450" cy="498" fill="#999999" r="4" /><text fill="#999999" font-family="Inter, -apple-system, BlinkMacSystemFont, sans-serif" font-size="8px" x="438" y="518">DCA</text><circle cx="486" cy="498" fill="#999999" r="4" /><text fill="#999999" font-family="Inter, -apple-system, BlinkMacSystemFont, sans-serif" font-size="8px" x="474" y="518">Port</text><circle cx="522" cy="498" fill="#999999" r="4" /><text fill="#999999" font-family="Inter, -apple-system, BlinkMacSystemFont, sans-serif" font-size="8px" x="510" y="518">Set</text><text fill="#333333" font-family="Inter, -apple-system, BlinkMacSystemFont, sans-serif" font-size="12px" font-weight="bold" x="375" y="180">Watchlist</text><rect fill="#F5F5F5" height="220" rx="8" ry="8" stroke="none" stroke-width="1" width="150" x="375" y="195" /><text fill="#999999" font-family="Inter, -apple-system, BlinkMacSystemFont, sans-serif" font-size="11px" font-weight="normal" x="415" y="300">Content Area</text></g><g id="tab-2"><rect fill="#FFFFFF" height="390" rx="20" ry="20" stroke="#E0E0E0" stroke-width="2" width="180" x="620" y="140" /><rect fill="#F0F0F0" height="10" rx="5" ry="5" stroke="none" stroke-width="1" width="60" x="680" y="148" /><line stroke="#E0E0E0" stroke-width="1" x1="620" x2="800" y1="480" y2="480" /><circle cx="638" cy="498" fill="#999999" r="4" /><text fill="#999999" font-family="Inter, -apple-system, BlinkMacSystemFont, sans-serif" font-size="8px" x="626" y="518">Home</text><circle cx="674" cy="498" fill="#999999" r="4" /><text fill="#999999" font-family="Inter, -apple-system, BlinkMacSystemFont, sans-serif" font-size="8px" x="662" y="518">Watch</text><circle cx="710" cy="498" fill="#34C759" r="4" /><text fill="#34C759" font-family="Inter, -apple-system, BlinkMacSystemFont, sans-serif" font-size="8px" x="698" y="518">DCA</text><circle cx="746" cy="498" fill="#999999" r="4" /><text fill="#999999" font-family="Inter, -apple-system, BlinkMacSystemFont, sans-serif" font-size="8px" x="734" y="518">Port</text><circle cx="782" cy="498" fill="#999999" r="4" /><text fill="#999999" font-family="Inter, -apple-system, BlinkMacSystemFont, sans-serif" font-size="8px" x="770" y="518">Set</text><text fill="#333333" font-family="Inter, -apple-system, BlinkMacSystemFont, sans-serif" font-size="12px" font-weight="bold" x="635" y="180">DCA</text><rect fill="#F5F5F5" height="220" rx="8" ry="8" stroke="none" stroke-width="1" width="150" x="635" y="195" /><text fill="#999999" font-family="Inter, -apple-system, BlinkMacSystemFont, sans-serif" font-size="11px" font-weight="normal" x="675" y="300">Content Area</text></g><g id="tab-3"><rect fill="#FFFFFF" height="390" rx="20" ry="20" stroke="#E0E0E0" stroke-width="2" width="180" x="880" y="140" /><rect fill="#F0F0F0" height="10" rx="5" ry="5" stroke="none" stroke-width="1" width="60" x="940" y="148" /><line stroke="#E0E0E0" stroke-width="1" x1="880" x2="1060" y1="480" y2="480" /><circle cx="898" cy="498" fill="#999999" r="4" /><text fill="#999999" font-family="Inter, -apple-system, BlinkMacSystemFont, sans-serif" font-size="8px" x="886" y="518">Home</text><circle cx="934" cy="498" fill="#999999" r="4" /><text fill="#999999" font-family="Inter, -apple-system, BlinkMacSystemFont, sans-serif" font-size="8px" x="922" y="518">Watch</text><circle cx="970" cy="498" fill="#999999" r="4" /><text fill="#999999" font-family="Inter, -apple-system, BlinkMacSystemFont, sans-serif" font-size="8px" x="958" y="518">DCA</text><circle cx="1006" cy="498" fill="#34C759" r="4" /><text fill="#34C759" font-family="Inter, -apple-system, BlinkMacSystemFont, sans-serif" font-size="8px" x="994" y="518">Port</text><circle cx="1042" cy="498" fill="#999999" r="4" /><text fill="#999999" font-family="Inter, -apple-system, BlinkMacSystemFont, sans-serif" font-size="8px" x="1030" y="518">Set</text><text fill="#333333" font-family="Inter, -apple-system, BlinkMacSystemFont, sans-serif" font-size="12px" font-weight="bold" x="895" y="180">Portfolio</text><rect fill="#F5F5F5" height="220" rx="8" ry="8" stroke="none" stroke-width="1" width="150" x="895" y="195" /><text fill="#999999" font-family="Inter, -apple-system, BlinkMacSystemFont, sans-serif" font-size="11px" font-weight="normal" x="935" y="300">Content Area</text></g><g id="tab-4"><rect fill="#FFFFFF" height="390" rx="20" ry="20" stroke="#E0E0E0" stroke-width="2" width="180" x="1140" y="140" /><rect fill="#F0F0F0" height="10" rx="5" ry="5" stroke="none" stroke-width="1" width="60" x="1200" y="148" /><line stroke="#E0E0E0" stroke-width="1" x1="1140" x2="1320" y1="480" y2="480" /><circle cx="1158" cy="498" fill="#999999" r="4" /><text fill="#999999" font-family="Inter, -apple-system, BlinkMacSystemFont, sans-serif" font-size="8px" x="1146" y="518">Home</text><circle cx="1194" cy="498" fill="#999999" r="4" /><text fill="#999999" font-family="Inter, -apple-system, BlinkMacSystemFont, sans-serif" font-size="8px" x="1182" y="518">Watch</text><circle cx="1230" cy="498" fill="#999999" r="4" /><text fill="#999999" font-family="Inter, -apple-system, BlinkMacSystemFont, sans-serif" font-size="8px" x="1218" y="518">DCA</text><circle cx="1266" cy="498" fill="#999999" r="4" /><text fill="#999999" font-family="Inter, -apple-system, BlinkMacSystemFont, sans-serif" font-size="8px" x="1254" y="518">Port</text><circle cx="1302" cy="498" fill="#34C759" r="4" /><text fill="#34C759" font-family="Inter, -apple-system, BlinkMacSystemFont, sans-serif" font-size="8px" x="1290" y="518">Set</text><text fill="#333333" font-family="Inter, -apple-system, BlinkMacSystemFont, sans-serif" font-size="12px" font-weight="bold" x="1155" y="180">Settings</text><rect fill="#F5F5F5" height="220" rx="8" ry="8" stroke="none" stroke-width="1" width="150" x="1155" y="195" /><text fill="#999999" font-family="Inter, -apple-system, BlinkMacSystemFont, sans-serif" font-size="11px" font-weight="normal" x="1195" y="300">Content Area</text></g></g><g id="labels"><text fill="#999999" font-family="Inter, -apple-system, BlinkMacSystemFont, sans-serif" font-size="10px" font-weight="normal" x="80" y="85">5-tab TabView structure with NavigationStack per tab</text><text fill="#999999" font-family="Inter, -apple-system, BlinkMacSystemFont, sans-serif" font-size="9px" font-weight="normal" x="175" y="545">Tab 0</text><text fill="#999999" font-family="Inter, -apple-system, BlinkMacSystemFont, sans-serif" font-size="9px" font-weight="normal" x="435" y="545">Tab 1</text><text fill="#999999" font-family="Inter, -apple-system, BlinkMacSystemFont, sans-serif" font-size="9px" font-weight="normal" x="695" y="545">Tab 2</text><text fill="#999999" font-family="Inter, -apple-system, BlinkMacSystemFont, sans-serif" font-size="9px" font-weight="normal" x="955" y="545">Tab 3</text><text fill="#999999" font-family="Inter, -apple-system, BlinkMacSystemFont, sans-serif" font-size="9px" font-weight="normal" x="1215" y="545">Tab 4</text><text fill="#999999" font-family="Inter, -apple-system, BlinkMacSystemFont, sans-serif" font-size="10px" font-weight="normal" x="100" y="580">Tab switching (tap tab bar icons)</text><text fill="#666666" font-family="Inter, -apple-system, BlinkMacSystemFont, sans-serif" font-size="14px" font-weight="normal" x="80" y="1250">Navigation Architecture:</text><text fill="#999999" font-family="Inter, -apple-system, BlinkMacSystemFont, sans-serif" font-size="10px" font-weight="normal" x="80" y="1275">• Each tab wraps content in NavigationStack</text><text fill="#999999" font-family="Inter, -apple-system, BlinkMacSystemFont, sans-serif" font-size="10px" font-weight="normal" x="80" y="1292">• Tab selection persists across app lifecycle</text><text fill="#999999" font-family="Inter, -apple-system, BlinkMacSystemFont, sans-serif" font-size="10px" font-weight="normal" x="80" y="1309">• NavigationStack state independent per tab</text><text fill="#666666" font-family="Inter, -apple-system, BlinkMacSystemFont, sans-serif" font-size="14px" font-weight="normal" x="500" y="1250">TabView Configuration:</text><text fill="#999999" font-family="Inter, -apple-system, BlinkMacSystemFont, sans-serif" font-size="10px" font-weight="normal" x="500" y="1275">• @State var selectedTab: Tab = .dashboard</text><text fill="#999999" font-family="Inter, -apple-system, BlinkMacSystemFont, sans-serif" font-size="10px" font-weight="normal" x="500" y="1292">• SF Symbols for tab icons</text><text fill="#999999" font-family="Inter, -apple-system, BlinkMacSystemFont, sans-serif" font-size="9px" font-weight="normal" x="80" y="1365">Source: GrowfolioApp.swift (MainTabView)</text></g></svg>