<?xml version="1.0" encoding="utf-8" ?>
<svg baseProfile="full" height="1400px" version="1.1" viewBox="0 0 2400 1400" width="2400px" xmlns="http://www.w3.org/2000/svg" xmlns:ev="http://www.w3.org/2001/xml-events" xmlns:xlink="http://www.w3.org/1999/xlink"><defs /><g id="background"><rect fill="#FAFAFA" height="1400" width="2400" x="0" y="0" /></g><g id="title"><text fill="#333333" font-family="Inter, -apple-system, BlinkMacSystemFont, sans-serif" font-size="28px" font-weight="bold" x="80" y="50">Growfolio iOS — Dashboard Hub</text></g><g id="screens"><g id="dashboard-main"><rect fill="#FFFFFF" height="390" rx="20" ry="20" stroke="#E0E0E0" stroke-width="2" width="180" x="100" y="130" /><rect fill="#F0F0F0" height="10" rx="5" ry="5" stroke="none" stroke-width="1" width="60" x="160" y="138" /><line stroke="#E0E0E0" stroke-width="1" x1="100" x2="280" y1="470" y2="470" /><circle cx="118" cy="488" fill="#34C759" r="4" /><text fill="#34C759" font-family="Inter, -apple-system, BlinkMacSystemFont, sans-serif" font-size="8px" x="106" y="508">Home</text><circle cx="154" cy="488" fill="#999999" r="4" /><text fill="#999999" font-family="Inter, -apple-system, BlinkMacSystemFont, sans-serif" font-size="8px" x="142" y="508">Watch</text><circle cx="190" cy="488" fill="#999999" r="4" /><text fill="#999999" font-family="Inter, -apple-system, BlinkMacSystemFont, sans-serif" font-size="8px" x="178" y="508">DCA</text><circle cx="226" cy="488" fill="#999999" r="4" /><text fill="#999999" font-family="Inter, -apple-system, BlinkMacSystemFont, sans-serif" font-size="8px" x="214" y="508">Port</text><circle cx="262" cy="488" fill="#999999" r="4" /><text fill="#999999" font-family="Inter, -apple-system, BlinkMacSystemFont, sans-serif" font-size="8px" x="250" y="508">Set</text><text fill="#999999" font-family="Inter, -apple-system, BlinkMacSystemFont, sans-serif" font-size="9px" font-weight="normal" x="115" y="168">Good Morning</text><text fill="#333333" font-family="Inter, -apple-system, BlinkMacSystemFont, sans-serif" font-size="12px" font-weight="bold" x="115" y="182">John</text><circle cx="255" cy="172" fill="#E0E0E0" r="12" /><rect fill="#F0FDF4" height="65" rx="10" ry="10" stroke="#BBF7D0" stroke-width="1" width="156" x="112" y="195" /><text fill="#666666" font-family="Inter, -apple-system, BlinkMacSystemFont, sans-serif" font-size="9px" font-weight="normal" x="120" y="212">Portfolio Value</text><text fill="#333333" font-family="Inter, -apple-system, BlinkMacSystemFont, sans-serif" font-size="14px" font-weight="bold" x="120" y="230">$12,450.00</text><text fill="#34C759" font-family="Inter, -apple-system, BlinkMacSystemFont, sans-serif" font-size="9px" font-weight="normal" x="120" y="248">+$245.50 (+2.01%)</text><text fill="#666666" font-family="Inter, -apple-system, BlinkMacSystemFont, sans-serif" font-size="9px" font-weight="normal" x="115" y="275">Quick Actions</text><rect fill="#F5F5F5" height="32" rx="8" ry="8" stroke="none" stroke-width="1" width="32" x="118" y="285" /><rect fill="#F5F5F5" height="32" rx="8" ry="8" stroke="none" stroke-width="1" width="32" x="158" y="285" /><rect fill="#F5F5F5" height="32" rx="8" ry="8" stroke="none" stroke-width="1" width="32" x="198" y="285" /><rect fill="#F5F5F5" height="32" rx="8" ry="8" stroke="none" stroke-width="1" width="32" x="238" y="285" /><text fill="#666666" font-family="Inter, -apple-system, BlinkMacSystemFont, sans-serif" font-size="9px" font-weight="normal" x="115" y="330">Goals</text><text fill="#34C759" font-family="Inter, -apple-system, BlinkMacSystemFont, sans-serif" font-size="8px" font-weight="normal" x="225" y="330">See All &gt;</text><rect fill="#F8F8F8" height="35" rx="6" ry="6" stroke="none" stroke-width="1" width="156" x="112" y="340" /><text fill="#666666" font-family="Inter, -apple-system, BlinkMacSystemFont, sans-serif" font-size="9px" font-weight="normal" x="115" y="380">Active DCA</text><text fill="#34C759" font-family="Inter, -apple-system, BlinkMacSystemFont, sans-serif" font-size="8px" font-weight="normal" x="225" y="380">See All &gt;</text><rect fill="#F8F8F8" height="35" rx="6" ry="6" stroke="none" stroke-width="1" width="156" x="112" y="390" /><text fill="#666666" font-family="Inter, -apple-system, BlinkMacSystemFont, sans-serif" font-size="9px" font-weight="normal" x="115" y="430">Recent Activity</text><text fill="#34C759" font-family="Inter, -apple-system, BlinkMacSystemFont, sans-serif" font-size="8px" font-weight="normal" x="225" y="430">See All &gt;</text><rect fill="#F8F8F8" height="35" rx="6" ry="6" stroke="none" stroke-width="1" width="156" x="112" y="440" /></g><g id="goals-dest"><rect fill="#FFFFFF" height="80" rx="12" ry="12" stroke="#E0E0E0" stroke-width="1" width="140" x="460" y="190" /><text fill="#333333" font-family="Inter, -apple-system, BlinkMacSystemFont, sans-serif" font-size="11px" font-weight="bold" x="475" y="215">Goals View</text><text fill="#34C759" font-family="Inter, -apple-system, BlinkMacSystemFont, sans-serif" font-size="9px" font-weight="normal" x="475" y="245">NavigationLink</text></g><g id="dca-dest"><rect fill="#FFFFFF" height="80" rx="12" ry="12" stroke="#E0E0E0" stroke-width="1" width="140" x="460" y="290" /><text fill="#333333" font-family="Inter, -apple-system, BlinkMacSystemFont, sans-serif" font-size="11px" font-weight="bold" x="475" y="315">DCA Schedules</text><text fill="#34C759" font-family="Inter, -apple-system, BlinkMacSystemFont, sans-serif" font-size="9px" font-weight="normal" x="475" y="345">NavigationLink</text></g><g id="activity-dest"><rect fill="#FFFFFF" height="80" rx="12" ry="12" stroke="#E0E0E0" stroke-width="1" width="140" x="460" y="390" /><text fill="#333333" font-family="Inter, -apple-system, BlinkMacSystemFont, sans-serif" font-size="11px" font-weight="bold" x="475" y="415">All Activity</text><text fill="#34C759" font-family="Inter, -apple-system, BlinkMacSystemFont, sans-serif" font-size="9px" font-weight="normal" x="475" y="445">NavigationLink</text></g><g id="sheet-0"><rect fill="#FFFFFF" height="65" rx="12" ry="12" stroke="#E0E0E0" stroke-width="1" width="120" x="640" y="185" /><text fill="#333333" font-family="Inter, -apple-system, BlinkMacSystemFont, sans-serif" font-size="10px" font-weight="normal" x="655" y="210">Add Goal</text><text fill="#007AFF" font-family="Inter, -apple-system, BlinkMacSystemFont, sans-serif" font-size="8px" font-weight="normal" x="655" y="230">Sheet (.large)</text></g><g id="sheet-1"><rect fill="#FFFFFF" height="65" rx="12" ry="12" stroke="#E0E0E0" stroke-width="1" width="120" x="640" y="265" /><text fill="#333333" font-family="Inter, -apple-system, BlinkMacSystemFont, sans-serif" font-size="10px" font-weight="normal" x="655" y="290">Create DCA</text><text fill="#007AFF" font-family="Inter, -apple-system, BlinkMacSystemFont, sans-serif" font-size="8px" font-weight="normal" x="655" y="310">Sheet (.large)</text></g><g id="sheet-2"><rect fill="#FFFFFF" height="65" rx="12" ry="12" stroke="#E0E0E0" stroke-width="1" width="120" x="640" y="345" /><text fill="#333333" font-family="Inter, -apple-system, BlinkMacSystemFont, sans-serif" font-size="10px" font-weight="normal" x="655" y="370">Trade</text><text fill="#007AFF" font-family="Inter, -apple-system, BlinkMacSystemFont, sans-serif" font-size="8px" font-weight="normal" x="655" y="390">Sheet (.large)</text></g><g id="sheet-3"><rect fill="#FFFFFF" height="65" rx="12" ry="12" stroke="#E0E0E0" stroke-width="1" width="120" x="640" y="425" /><text fill="#333333" font-family="Inter, -apple-system, BlinkMacSystemFont, sans-serif" font-size="10px" font-weight="normal" x="655" y="450">Deposit</text><text fill="#007AFF" font-family="Inter, -apple-system, BlinkMacSystemFont, sans-serif" font-size="8px" font-weight="normal" x="655" y="470">Sheet (.large)</text></g></g><g id="arrows"><g id="arrow-to-goals-dest"><line stroke="#666666" stroke-width="2" x1="290" x2="450" y1="170" y2="230" /><polygon fill="#666666" points="450,230 440.13553425126423,231.64082768504753 443.64676866714814,222.27753590935708" /></g><g id="arrow-to-dca-dest"><line stroke="#666666" stroke-width="2" x1="290" x2="450" y1="270" y2="330" /><polygon fill="#666666" points="450,330 440.13553425126423,331.64082768504755 443.64676866714814,322.2775359093571" /></g><g id="arrow-to-activity-dest"><line stroke="#666666" stroke-width="2" x1="290" x2="450" y1="370" y2="430" /><polygon fill="#666666" points="450,430 440.13553425126423,431.64082768504755 443.64676866714814,422.2775359093571" /></g></g><g id="labels"><text fill="#999999" font-family="Inter, -apple-system, BlinkMacSystemFont, sans-serif" font-size="10px" font-weight="normal" x="80" y="85">Central hub with quick actions and navigation to all features</text><text fill="#666666" font-family="Inter, -apple-system, BlinkMacSystemFont, sans-serif" font-size="10px" font-weight="normal" x="640" y="160">Quick Action Sheets</text><text fill="#999999" font-family="Inter, -apple-system, BlinkMacSystemFont, sans-serif" font-size="9px" font-weight="normal" x="80" y="1365">Source: DashboardView.swift, GoalsView.swift, AllActivityView.swift</text></g></svg>