<?xml version="1.0" encoding="utf-8" ?>
<svg baseProfile="full" height="1400px" version="1.1" viewBox="0 0 2400 1400" width="2400px" xmlns="http://www.w3.org/2000/svg" xmlns:ev="http://www.w3.org/2001/xml-events" xmlns:xlink="http://www.w3.org/1999/xlink"><defs /><g id="background"><rect fill="#FAFAFA" height="1400" width="2400" x="0" y="0" /></g><g id="title"><text fill="#333333" font-family="Inter, -apple-system, BlinkMacSystemFont, sans-serif" font-size="28px" font-weight="bold" x="80" y="50">Growfolio iOS — DCA Schedules</text></g><g id="screens"><g id="dca-list"><rect fill="#FFFFFF" height="390" rx="20" ry="20" stroke="#E0E0E0" stroke-width="2" width="180" x="100" y="130" /><rect fill="#F0F0F0" height="10" rx="5" ry="5" stroke="none" stroke-width="1" width="60" x="160" y="138" /><line stroke="#E0E0E0" stroke-width="1" x1="100" x2="280" y1="470" y2="470" /><circle cx="118" cy="488" fill="#999999" r="4" /><text fill="#999999" font-family="Inter, -apple-system, BlinkMacSystemFont, sans-serif" font-size="8px" x="106" y="508">Home</text><circle cx="154" cy="488" fill="#999999" r="4" /><text fill="#999999" font-family="Inter, -apple-system, BlinkMacSystemFont, sans-serif" font-size="8px" x="142" y="508">Watch</text><circle cx="190" cy="488" fill="#34C759" r="4" /><text fill="#34C759" font-family="Inter, -apple-system, BlinkMacSystemFont, sans-serif" font-size="8px" x="178" y="508">DCA</text><circle cx="226" cy="488" fill="#999999" r="4" /><text fill="#999999" font-family="Inter, -apple-system, BlinkMacSystemFont, sans-serif" font-size="8px" x="214" y="508">Port</text><circle cx="262" cy="488" fill="#999999" r="4" /><text fill="#999999" font-family="Inter, -apple-system, BlinkMacSystemFont, sans-serif" font-size="8px" x="250" y="508">Set</text><text fill="#333333" font-family="Inter, -apple-system, BlinkMacSystemFont, sans-serif" font-size="12px" font-weight="bold" x="115" y="170">DCA Schedules</text><text fill="#34C759" font-family="Inter, -apple-system, BlinkMacSystemFont, sans-serif" font-size="16px" font-weight="bold" x="255" y="170">+</text><rect fill="#F0FDF4" height="55" rx="10" ry="10" stroke="none" stroke-width="1" width="156" x="112" y="185" /><text fill="#666666" font-family="Inter, -apple-system, BlinkMacSystemFont, sans-serif" font-size="9px" font-weight="normal" x="120" y="202">Monthly Total</text><text fill="#333333" font-family="Inter, -apple-system, BlinkMacSystemFont, sans-serif" font-size="12px" font-weight="bold" x="120" y="218">£500/month</text><text fill="#34C759" font-family="Inter, -apple-system, BlinkMacSystemFont, sans-serif" font-size="8px" font-weight="normal" x="120" y="232">5 active schedules</text><rect fill="#F8F8F8" height="42" rx="8" ry="8" stroke="none" stroke-width="1" width="156" x="112" y="250" /><circle cx="130" cy="271" fill="#E0E0E0" r="10" /><text fill="#333333" font-family="Inter, -apple-system, BlinkMacSystemFont, sans-serif" font-size="10px" font-weight="bold" x="148" y="266">AAPL</text><text fill="#666666" font-family="Inter, -apple-system, BlinkMacSystemFont, sans-serif" font-size="8px" font-weight="normal" x="148" y="280">£100/weekly</text><text fill="#34C759" font-family="Inter, -apple-system, BlinkMacSystemFont, sans-serif" font-size="8px" font-weight="normal" x="230" y="272">Active</text><rect fill="#F8F8F8" height="42" rx="8" ry="8" stroke="none" stroke-width="1" width="156" x="112" y="298" /><circle cx="130" cy="319" fill="#E0E0E0" r="10" /><text fill="#333333" font-family="Inter, -apple-system, BlinkMacSystemFont, sans-serif" font-size="10px" font-weight="bold" x="148" y="314">GOOGL</text><text fill="#666666" font-family="Inter, -apple-system, BlinkMacSystemFont, sans-serif" font-size="8px" font-weight="normal" x="148" y="328">£50/monthly</text><text fill="#34C759" font-family="Inter, -apple-system, BlinkMacSystemFont, sans-serif" font-size="8px" font-weight="normal" x="230" y="320">Active</text><rect fill="#F8F8F8" height="42" rx="8" ry="8" stroke="none" stroke-width="1" width="156" x="112" y="346" /><circle cx="130" cy="367" fill="#E0E0E0" r="10" /><text fill="#333333" font-family="Inter, -apple-system, BlinkMacSystemFont, sans-serif" font-size="10px" font-weight="bold" x="148" y="362">VOO</text><text fill="#666666" font-family="Inter, -apple-system, BlinkMacSystemFont, sans-serif" font-size="8px" font-weight="normal" x="148" y="376">£200/monthly</text><text fill="#34C759" font-family="Inter, -apple-system, BlinkMacSystemFont, sans-serif" font-size="8px" font-weight="normal" x="230" y="368">Active</text></g><g id="create-dca"><rect fill="#FFFFFF" height="310" rx="20" ry="20" stroke="#E0E0E0" stroke-width="2" width="180" x="360" y="150" /><text fill="#333333" font-family="Inter, -apple-system, BlinkMacSystemFont, sans-serif" font-size="11px" font-weight="bold" x="375" y="180">Create DCA Schedule</text><text fill="#666666" font-family="Inter, -apple-system, BlinkMacSystemFont, sans-serif" font-size="9px" font-weight="normal" x="375" y="205">Stock Symbol</text><rect fill="#F5F5F5" height="26" rx="4" ry="4" stroke="none" stroke-width="1" width="150" x="375" y="213" /><text fill="#666666" font-family="Inter, -apple-system, BlinkMacSystemFont, sans-serif" font-size="9px" font-weight="normal" x="375" y="250">Amount (£)</text><rect fill="#F5F5F5" height="26" rx="4" ry="4" stroke="none" stroke-width="1" width="150" x="375" y="258" /><text fill="#666666" font-family="Inter, -apple-system, BlinkMacSystemFont, sans-serif" font-size="9px" font-weight="normal" x="375" y="295">Frequency</text><rect fill="#F5F5F5" height="26" rx="4" ry="4" stroke="none" stroke-width="1" width="150" x="375" y="303" /><text fill="#666666" font-family="Inter, -apple-system, BlinkMacSystemFont, sans-serif" font-size="9px" font-weight="normal" x="375" y="340">Start Date</text><rect fill="#F5F5F5" height="26" rx="4" ry="4" stroke="none" stroke-width="1" width="150" x="375" y="348" /><text fill="#666666" font-family="Inter, -apple-system, BlinkMacSystemFont, sans-serif" font-size="9px" font-weight="normal" x="375" y="385">Portfolio</text><rect fill="#F5F5F5" height="26" rx="4" ry="4" stroke="none" stroke-width="1" width="150" x="375" y="393" /><rect fill="#34C759" height="35" rx="8" ry="8" stroke="none" stroke-width="1" width="150" x="375" y="420" /><text fill="white" font-family="Inter, -apple-system, BlinkMacSystemFont, sans-serif" font-size="10px" font-weight="bold" x="410" y="442">Create Schedule</text></g><g id="dca-detail"><rect fill="#FFFFFF" height="310" rx="20" ry="20" stroke="#E0E0E0" stroke-width="2" width="180" x="620" y="150" /><text fill="#999999" font-family="Inter, -apple-system, BlinkMacSystemFont, sans-serif" font-size="9px" font-weight="normal" x="635" y="175">&lt; Back</text><text fill="#333333" font-family="Inter, -apple-system, BlinkMacSystemFont, sans-serif" font-size="11px" font-weight="bold" x="680" y="175">AAPL DCA</text><rect fill="#F0FDF4" height="80" rx="10" ry="10" stroke="none" stroke-width="1" width="150" x="635" y="195" /><text fill="#333333" font-family="Inter, -apple-system, BlinkMacSystemFont, sans-serif" font-size="12px" font-weight="bold" x="642" y="215">£100 / Weekly</text><text fill="#666666" font-family="Inter, -apple-system, BlinkMacSystemFont, sans-serif" font-size="9px" font-weight="normal" x="642" y="235">Next: Jan 15</text><text fill="#666666" font-family="Inter, -apple-system, BlinkMacSystemFont, sans-serif" font-size="9px" font-weight="normal" x="642" y="250">Total invested: £1,200</text><text fill="#34C759" font-family="Inter, -apple-system, BlinkMacSystemFont, sans-serif" font-size="9px" font-weight="normal" x="642" y="265">Status: Active</text><rect fill="#FEF3C7" height="28" rx="6" ry="6" stroke="none" stroke-width="1" width="70" x="635" y="290" /><text fill="#D97706" font-family="Inter, -apple-system, BlinkMacSystemFont, sans-serif" font-size="9px" font-weight="normal" x="655" y="308">Pause</text><rect fill="#FEE2E2" height="28" rx="6" ry="6" stroke="none" stroke-width="1" width="70" x="715" y="290" /><text fill="#FF3B30" font-family="Inter, -apple-system, BlinkMacSystemFont, sans-serif" font-size="9px" font-weight="normal" x="733" y="308">Delete</text><text fill="#666666" font-family="Inter, -apple-system, BlinkMacSystemFont, sans-serif" font-size="10px" font-weight="normal" x="635" y="340">Execution History</text><rect fill="#F8F8F8" height="24" rx="4" ry="4" stroke="none" stroke-width="1" width="150" x="635" y="355" /><rect fill="#F8F8F8" height="24" rx="4" ry="4" stroke="none" stroke-width="1" width="150" x="635" y="383" /><rect fill="#F8F8F8" height="24" rx="4" ry="4" stroke="none" stroke-width="1" width="150" x="635" y="411" /></g></g><g id="arrows"><g id="arrow-to-create"><line stroke="#666666" stroke-dasharray="6,4" stroke-width="2" x1="265" x2="350" y1="175" y2="280" /><polygon fill="#666666" points="350,280 340.6647591460363,276.4148531134015 348.43720785311115,270.12287082672185" /></g><g id="arrow-to-detail"><line stroke="#666666" stroke-width="2" x1="190" x2="610" y1="280" y2="280" /><polygon fill="#666666" points="610,280 601.3397459621556,285.0 601.3397459621556,275.0" /></g></g><g id="labels"><text fill="#999999" font-family="Inter, -apple-system, BlinkMacSystemFont, sans-serif" font-size="10px" font-weight="normal" x="80" y="85">Dollar Cost Averaging schedule management</text><text fill="#007AFF" font-family="Inter, -apple-system, BlinkMacSystemFont, sans-serif" font-size="9px" font-weight="normal" x="410" y="130">Sheet (+ button)</text><text fill="#34C759" font-family="Inter, -apple-system, BlinkMacSystemFont, sans-serif" font-size="9px" font-weight="normal" x="650" y="130">NavigationLink (tap row)</text><text fill="#999999" font-family="Inter, -apple-system, BlinkMacSystemFont, sans-serif" font-size="9px" font-weight="normal" x="80" y="1365">Source: DCASchedulesView.swift, CreateDCAScheduleView.swift, DCAScheduleDetailView.swift</text></g></svg>