<?xml version="1.0" encoding="utf-8" ?>
<svg baseProfile="full" height="1400px" version="1.1" viewBox="0 0 2400 1400" width="2400px" xmlns="http://www.w3.org/2000/svg" xmlns:ev="http://www.w3.org/2001/xml-events" xmlns:xlink="http://www.w3.org/1999/xlink"><defs /><g id="background"><rect fill="#FAFAFA" height="1400" width="2400" x="0" y="0" /></g><g id="title"><text fill="#333333" font-family="Inter, -apple-system, BlinkMacSystemFont, sans-serif" font-size="28px" font-weight="bold" x="80" y="50">Growfolio iOS — Portfolio</text></g><g id="screens"><g id="portfolio"><rect fill="#FFFFFF" height="390" rx="20" ry="20" stroke="#E0E0E0" stroke-width="2" width="180" x="100" y="130" /><rect fill="#F0F0F0" height="10" rx="5" ry="5" stroke="none" stroke-width="1" width="60" x="160" y="138" /><line stroke="#E0E0E0" stroke-width="1" x1="100" x2="280" y1="470" y2="470" /><circle cx="118" cy="488" fill="#999999" r="4" /><text fill="#999999" font-family="Inter, -apple-system, BlinkMacSystemFont, sans-serif" font-size="8px" x="106" y="508">Home</text><circle cx="154" cy="488" fill="#999999" r="4" /><text fill="#999999" font-family="Inter, -apple-system, BlinkMacSystemFont, sans-serif" font-size="8px" x="142" y="508">Watch</text><circle cx="190" cy="488" fill="#999999" r="4" /><text fill="#999999" font-family="Inter, -apple-system, BlinkMacSystemFont, sans-serif" font-size="8px" x="178" y="508">DCA</text><circle cx="226" cy="488" fill="#34C759" r="4" /><text fill="#34C759" font-family="Inter, -apple-system, BlinkMacSystemFont, sans-serif" font-size="8px" x="214" y="508">Port</text><circle cx="262" cy="488" fill="#999999" r="4" /><text fill="#999999" font-family="Inter, -apple-system, BlinkMacSystemFont, sans-serif" font-size="8px" x="250" y="508">Set</text><text fill="#333333" font-family="Inter, -apple-system, BlinkMacSystemFont, sans-serif" font-size="12px" font-weight="bold" x="115" y="170">Portfolio</text><rect fill="#F0FDF4" height="70" rx="10" ry="10" stroke="none" stroke-width="1" width="156" x="112" y="185" /><text fill="#666666" font-family="Inter, -apple-system, BlinkMacSystemFont, sans-serif" font-size="9px" font-weight="normal" x="120" y="202">Total Value</text><text fill="#333333" font-family="Inter, -apple-system, BlinkMacSystemFont, sans-serif" font-size="14px" font-weight="bold" x="120" y="220">$12,450.00</text><text fill="#34C759" font-family="Inter, -apple-system, BlinkMacSystemFont, sans-serif" font-size="9px" font-weight="normal" x="120" y="238">+$1,250 (+11.2%)</text><text fill="#666666" font-family="Inter, -apple-system, BlinkMacSystemFont, sans-serif" font-size="10px" font-weight="normal" x="115" y="275">Holdings</text><rect fill="#F8F8F8" height="40" rx="6" ry="6" stroke="none" stroke-width="1" width="156" x="112" y="290" /><rect fill="#F8F8F8" height="40" rx="6" ry="6" stroke="none" stroke-width="1" width="156" x="112" y="335" /></g><g id="holding-detail"><rect fill="#FFFFFF" height="70" rx="12" ry="12" stroke="#E0E0E0" stroke-width="1" width="140" x="430" y="210" /><text fill="#333333" font-family="Inter, -apple-system, BlinkMacSystemFont, sans-serif" font-size="10px" font-weight="bold" x="445" y="235">Holding Detail</text><text fill="#34C759" font-family="Inter, -apple-system, BlinkMacSystemFont, sans-serif" font-size="9px" font-weight="normal" x="445" y="260">NavigationLink</text></g><g id="transaction-history"><rect fill="#FFFFFF" height="70" rx="12" ry="12" stroke="#E0E0E0" stroke-width="1" width="140" x="430" y="310" /><text fill="#333333" font-family="Inter, -apple-system, BlinkMacSystemFont, sans-serif" font-size="10px" font-weight="bold" x="445" y="335">Transaction History</text><text fill="#34C759" font-family="Inter, -apple-system, BlinkMacSystemFont, sans-serif" font-size="9px" font-weight="normal" x="445" y="360">NavigationLink</text></g><g id="add-transaction"><rect fill="#FFFFFF" height="70" rx="12" ry="12" stroke="#E0E0E0" stroke-width="1" width="140" x="430" y="410" /><text fill="#333333" font-family="Inter, -apple-system, BlinkMacSystemFont, sans-serif" font-size="10px" font-weight="bold" x="445" y="435">Add Transaction</text><text fill="#34C759" font-family="Inter, -apple-system, BlinkMacSystemFont, sans-serif" font-size="9px" font-weight="normal" x="445" y="460">NavigationLink</text></g></g><g id="arrows"><g id="arrow-holding-detail"><line stroke="#666666" stroke-width="2" x1="290" x2="420" y1="210" y2="245" /><polygon fill="#666666" points="420,245 410.33765486102584,247.57664246944398 412.93738959550456,237.92048488423728" /></g><g id="arrow-transaction-history"><line stroke="#666666" stroke-width="2" x1="290" x2="420" y1="310" y2="345" /><polygon fill="#666666" points="420,345 410.33765486102584,347.576642469444 412.93738959550456,337.9204848842373" /></g><g id="arrow-add-transaction"><line stroke="#666666" stroke-width="2" x1="290" x2="420" y1="410" y2="445" /><polygon fill="#666666" points="420,445 410.33765486102584,447.576642469444 412.93738959550456,437.9204848842373" /></g></g><g id="labels"><text fill="#999999" font-family="Inter, -apple-system, BlinkMacSystemFont, sans-serif" font-size="10px" font-weight="normal" x="80" y="85">Holdings, transactions, and portfolio performance</text><text fill="#999999" font-family="Inter, -apple-system, BlinkMacSystemFont, sans-serif" font-size="9px" font-weight="normal" x="80" y="1365">Source: PortfolioView.swift, HoldingDetailView.swift, TransactionHistoryView.swift</text></g></svg>