<?xml version="1.0" encoding="utf-8" ?>
<svg baseProfile="full" height="1400px" version="1.1" viewBox="0 0 2400 1400" width="2400px" xmlns="http://www.w3.org/2000/svg" xmlns:ev="http://www.w3.org/2001/xml-events" xmlns:xlink="http://www.w3.org/1999/xlink"><defs /><g id="background"><rect fill="#FAFAFA" height="1400" width="2400" x="0" y="0" /></g><g id="title"><text fill="#333333" font-family="Inter, -apple-system, BlinkMacSystemFont, sans-serif" font-size="28px" font-weight="bold" x="80" y="50">Growfolio iOS — Goals Management</text></g><g id="screens"><g id="goals-list"><rect fill="#FFFFFF" height="390" rx="20" ry="20" stroke="#E0E0E0" stroke-width="2" width="180" x="100" y="130" /><rect fill="#F0F0F0" height="10" rx="5" ry="5" stroke="none" stroke-width="1" width="60" x="160" y="138" /><text fill="#999999" font-family="Inter, -apple-system, BlinkMacSystemFont, sans-serif" font-size="9px" font-weight="normal" x="115" y="160">&lt; Back</text><text fill="#333333" font-family="Inter, -apple-system, BlinkMacSystemFont, sans-serif" font-size="12px" font-weight="bold" x="160" y="170">Goals</text><text fill="#34C759" font-family="Inter, -apple-system, BlinkMacSystemFont, sans-serif" font-size="16px" font-weight="bold" x="255" y="170">+</text><rect fill="#F0FDF4" height="45" rx="10" ry="10" stroke="none" stroke-width="1" width="156" x="112" y="185" /><text fill="#34C759" font-family="Inter, -apple-system, BlinkMacSystemFont, sans-serif" font-size="10px" font-weight="bold" x="120" y="212">Overall Progress: 45%</text><rect fill="#F8F8F8" height="45" rx="8" ry="8" stroke="none" stroke-width="1" width="156" x="112" y="240" /><circle cx="128" cy="262" fill="#34C759" r="8" /><text fill="#333333" font-family="Inter, -apple-system, BlinkMacSystemFont, sans-serif" font-size="10px" font-weight="bold" x="145" y="258">Retirement</text><text fill="#666666" font-family="Inter, -apple-system, BlinkMacSystemFont, sans-serif" font-size="8px" font-weight="normal" x="145" y="262">Progress: 65%</text><rect fill="#F8F8F8" height="45" rx="8" ry="8" stroke="none" stroke-width="1" width="156" x="112" y="290" /><circle cx="128" cy="312" fill="#007AFF" r="8" /><text fill="#333333" font-family="Inter, -apple-system, BlinkMacSystemFont, sans-serif" font-size="10px" font-weight="bold" x="145" y="308">House</text><text fill="#666666" font-family="Inter, -apple-system, BlinkMacSystemFont, sans-serif" font-size="8px" font-weight="normal" x="145" y="262">Progress: 30%</text><rect fill="#F8F8F8" height="45" rx="8" ry="8" stroke="none" stroke-width="1" width="156" x="112" y="340" /><circle cx="128" cy="362" fill="#FF9500" r="8" /><text fill="#333333" font-family="Inter, -apple-system, BlinkMacSystemFont, sans-serif" font-size="10px" font-weight="bold" x="145" y="358">Emergency</text><text fill="#666666" font-family="Inter, -apple-system, BlinkMacSystemFont, sans-serif" font-size="8px" font-weight="normal" x="145" y="262">Progress: 80%</text></g><g id="create-goal"><rect fill="#FFFFFF" height="220" rx="12" ry="12" stroke="#E0E0E0" stroke-width="1" width="150" x="380" y="150" /><text fill="#333333" font-family="Inter, -apple-system, BlinkMacSystemFont, sans-serif" font-size="11px" font-weight="bold" x="395" y="180">Create Goal</text><text fill="#666666" font-family="Inter, -apple-system, BlinkMacSystemFont, sans-serif" font-size="9px" font-weight="normal" x="395" y="205">Goal Name</text><rect fill="#F5F5F5" height="22" rx="4" ry="4" stroke="none" stroke-width="1" width="120" x="395" y="218" /><text fill="#666666" font-family="Inter, -apple-system, BlinkMacSystemFont, sans-serif" font-size="9px" font-weight="normal" x="395" y="240">Target Amount</text><rect fill="#F5F5F5" height="22" rx="4" ry="4" stroke="none" stroke-width="1" width="120" x="395" y="253" /><text fill="#666666" font-family="Inter, -apple-system, BlinkMacSystemFont, sans-serif" font-size="9px" font-weight="normal" x="395" y="275">Target Date</text><rect fill="#F5F5F5" height="22" rx="4" ry="4" stroke="none" stroke-width="1" width="120" x="395" y="288" /><text fill="#666666" font-family="Inter, -apple-system, BlinkMacSystemFont, sans-serif" font-size="9px" font-weight="normal" x="395" y="310">Category</text><rect fill="#F5F5F5" height="22" rx="4" ry="4" stroke="none" stroke-width="1" width="120" x="395" y="323" /><rect fill="#34C759" height="25" rx="6" ry="6" stroke="none" stroke-width="1" width="120" x="395" y="340" /><text fill="white" font-family="Inter, -apple-system, BlinkMacSystemFont, sans-serif" font-size="9px" font-weight="normal" x="420" y="357">Create Goal</text></g><g id="goal-detail"><rect fill="#FFFFFF" height="250" rx="12" ry="12" stroke="#E0E0E0" stroke-width="1" width="160" x="570" y="150" /><text fill="#999999" font-family="Inter, -apple-system, BlinkMacSystemFont, sans-serif" font-size="9px" font-weight="normal" x="585" y="175">&lt; Back</text><text fill="#333333" font-family="Inter, -apple-system, BlinkMacSystemFont, sans-serif" font-size="12px" font-weight="bold" x="585" y="200">Retirement</text><rect fill="#F0FDF4" height="70" rx="10" ry="10" stroke="none" stroke-width="1" width="130" x="585" y="220" /><text fill="#34C759" font-family="Inter, -apple-system, BlinkMacSystemFont, sans-serif" font-size="11px" font-weight="bold" x="595" y="245">Progress: 65%</text><text fill="#666666" font-family="Inter, -apple-system, BlinkMacSystemFont, sans-serif" font-size="9px" font-weight="normal" x="595" y="265">$65,000 / $100,000</text><rect fill="#F0F0F0" height="25" rx="6" ry="6" stroke="none" stroke-width="1" width="60" x="585" y="305" /><text fill="#666666" font-family="Inter, -apple-system, BlinkMacSystemFont, sans-serif" font-size="9px" font-weight="normal" x="605" y="322">Edit</text><rect fill="#FEE2E2" height="25" rx="6" ry="6" stroke="none" stroke-width="1" width="60" x="655" y="305" /><text fill="#FF3B30" font-family="Inter, -apple-system, BlinkMacSystemFont, sans-serif" font-size="8px" font-weight="normal" x="665" y="322">Archive</text><text fill="#007AFF" font-family="Inter, -apple-system, BlinkMacSystemFont, sans-serif" font-size="9px" font-weight="normal" x="585" y="360">View Positions &gt;</text></g></g><g id="arrows"><g id="arrow-create"><line stroke="#666666" stroke-dasharray="6,4" stroke-width="2" x1="265" x2="370" y1="175" y2="260" /><polygon fill="#666666" points="370,260 360.12287082672185,258.43720785311115 366.4148531134015,250.6647591460363" /></g><g id="arrow-detail"><line stroke="#666666" stroke-width="2" x1="190" x2="560" y1="290" y2="270" /><polygon fill="#666666" points="560,270 551.6222465359651,275.46015081255564 551.0824939558152,265.47472807978056" /></g></g><g id="labels"><text fill="#999999" font-family="Inter, -apple-system, BlinkMacSystemFont, sans-serif" font-size="10px" font-weight="normal" x="80" y="85">Investment goal tracking and management</text><text fill="#007AFF" font-family="Inter, -apple-system, BlinkMacSystemFont, sans-serif" font-size="9px" font-weight="normal" x="410" y="130">Sheet (+ button)</text><text fill="#34C759" font-family="Inter, -apple-system, BlinkMacSystemFont, sans-serif" font-size="9px" font-weight="normal" x="610" y="130">NavigationLink</text><text fill="#999999" font-family="Inter, -apple-system, BlinkMacSystemFont, sans-serif" font-size="9px" font-weight="normal" x="80" y="1365">Source: GoalsView.swift, CreateGoalView.swift, GoalDetailView.swift</text></g></svg>